<svg xmlns="http://www.w3.org/2000/svg" xmlns:xlink="http://www.w3.org/1999/xlink" width="120" zoomAndPan="magnify" viewBox="0 0 90 41.25" height="55" preserveAspectRatio="xMidYMid meet" version="1.0"><defs><g/><clipPath id="38ca6da6fd"><path d="M 23 8 L 56.984375 8 L 56.984375 21 L 23 21 Z M 23 8 " clip-rule="nonzero"/></clipPath><clipPath id="f88ef33422"><path d="M 51 5 L 56.984375 5 L 56.984375 12 L 51 12 Z M 51 5 " clip-rule="nonzero"/></clipPath></defs><path fill="#ffffff" d="M 32.035156 9.761719 C 37.710938 7.40625 43.523438 7.019531 48.167969 8.300781 C 42.886719 5.96875 35.542969 6.03125 28.40625 8.992188 C 17.09375 13.691406 10.597656 23.894531 13.898438 31.78125 C 16.328125 37.59375 23.40625 40.523438 31.492188 39.777344 C 21.617188 37.460938 19.398438 33.128906 18.507812 31 C 15.433594 23.648438 21.488281 14.136719 32.035156 9.761719 Z M 32.035156 9.761719 " fill-opacity="1" fill-rule="nonzero"/><g clip-path="url(#38ca6da6fd)"><path fill="#ffffff" d="M 55.871094 15.488281 C 55.25 14 54.25 12.746094 52.96875 11.746094 C 48.75 8.445312 41.472656 7.890625 34.441406 10.808594 C 29.28125 12.953125 25.351562 16.515625 23.390625 20.359375 C 25.730469 17.386719 29.175781 14.753906 33.390625 13.007812 C 42.21875 9.34375 51.410156 10.769531 55.300781 16.042969 C 55.75 16.65625 56.136719 17.320312 56.4375 18.035156 C 56.472656 18.121094 56.5 18.207031 56.535156 18.292969 C 56.464844 17.332031 56.25 16.390625 55.871094 15.488281 Z M 55.871094 15.488281 " fill-opacity="1" fill-rule="nonzero"/></g><g clip-path="url(#f88ef33422)"><path fill="#ffffff" d="M 56.957031 8.289062 C 54.785156 8.6875 54.464844 9.007812 54.0625 11.171875 C 53.664062 9.007812 53.339844 8.6875 51.167969 8.289062 C 53.339844 7.890625 53.664062 7.566406 54.0625 5.402344 C 54.464844 7.570312 54.785156 7.890625 56.957031 8.289062 Z M 56.957031 8.289062 " fill-opacity="1" fill-rule="nonzero"/></g><path fill="#ffffff" d="M 49.738281 1.636719 C 48.65625 1.945312 48.40625 2.195312 48.097656 3.273438 C 47.785156 2.195312 47.535156 1.945312 46.453125 1.636719 C 47.535156 1.328125 47.785156 1.078125 48.097656 0 C 48.40625 1.078125 48.65625 1.328125 49.738281 1.636719 Z M 49.738281 1.636719 " fill-opacity="1" fill-rule="nonzero"/><path fill="#ffffff" d="M 54.0625 2.730469 C 53.523438 2.886719 53.394531 3.011719 53.238281 3.550781 C 53.082031 3.011719 52.957031 2.886719 52.417969 2.730469 C 52.957031 2.574219 53.082031 2.449219 53.238281 1.914062 C 53.394531 2.449219 53.523438 2.574219 54.0625 2.730469 Z M 54.0625 2.730469 " fill-opacity="1" fill-rule="nonzero"/><g fill="#ffffff" fill-opacity="1"><g transform="translate(34.594937, 28.019468)"><g><path d="M 1.890625 -6.265625 L 1.890625 0 L 0.453125 0 L 0.453125 -6.265625 Z M 1.890625 -6.265625 "/></g></g></g><g fill="#ffffff" fill-opacity="1"><g transform="translate(36.931627, 28.019468)"><g><path d="M 1.890625 -3.890625 L 1.890625 0 L 0.453125 0 L 0.453125 -6.265625 L 1.890625 -6.265625 L 4.375 -2.375 L 4.390625 -2.375 L 4.390625 -6.265625 L 5.8125 -6.265625 L 5.8125 0 L 4.390625 0 Z M 1.890625 -3.890625 "/></g></g></g><g fill="#ffffff" fill-opacity="1"><g transform="translate(43.198194, 28.019468)"><g><path d="M 4.078125 -6.265625 L 4.078125 -5.015625 L 1.890625 -5.015625 L 1.890625 -3.765625 L 3.90625 -3.765625 L 3.90625 -2.515625 L 1.890625 -2.515625 L 1.890625 0 L 0.453125 0 L 0.453125 -6.265625 Z M 4.078125 -6.265625 "/></g></g></g><g fill="#ffffff" fill-opacity="1"><g transform="translate(47.499823, 28.019468)"><g><path d="M 5.265625 -6.265625 L 5.265625 -2.21875 C 5.265625 -1.457031 5.054688 -0.878906 4.640625 -0.484375 C 4.234375 -0.0859375 3.628906 0.109375 2.828125 0.109375 C 2.023438 0.109375 1.414062 -0.0859375 1 -0.484375 C 0.582031 -0.878906 0.375 -1.457031 0.375 -2.21875 L 0.375 -6.265625 L 1.8125 -6.265625 L 1.8125 -2.640625 C 1.8125 -2.140625 1.890625 -1.789062 2.046875 -1.59375 C 2.203125 -1.394531 2.457031 -1.296875 2.8125 -1.296875 C 3.175781 -1.296875 3.4375 -1.394531 3.59375 -1.59375 C 3.757812 -1.789062 3.84375 -2.140625 3.84375 -2.640625 L 3.84375 -6.265625 Z M 5.265625 -6.265625 "/></g></g></g><g fill="#ffffff" fill-opacity="1"><g transform="translate(53.144293, 28.019468)"><g><path d="M 2.765625 -6.375 C 3.097656 -6.375 3.425781 -6.320312 3.75 -6.21875 C 4.082031 -6.125 4.328125 -6.03125 4.484375 -5.9375 L 4.703125 -5.78125 L 4.125 -4.640625 C 4.082031 -4.671875 4.019531 -4.710938 3.9375 -4.765625 C 3.851562 -4.816406 3.703125 -4.878906 3.484375 -4.953125 C 3.265625 -5.035156 3.054688 -5.078125 2.859375 -5.078125 C 2.617188 -5.078125 2.4375 -5.023438 2.3125 -4.921875 C 2.1875 -4.828125 2.125 -4.691406 2.125 -4.515625 C 2.125 -4.429688 2.148438 -4.351562 2.203125 -4.28125 C 2.265625 -4.207031 2.367188 -4.128906 2.515625 -4.046875 C 2.660156 -3.960938 2.789062 -3.894531 2.90625 -3.84375 C 3.019531 -3.789062 3.191406 -3.710938 3.421875 -3.609375 C 3.828125 -3.441406 4.171875 -3.207031 4.453125 -2.90625 C 4.742188 -2.613281 4.890625 -2.28125 4.890625 -1.90625 C 4.890625 -1.539062 4.820312 -1.222656 4.6875 -0.953125 C 4.5625 -0.691406 4.382812 -0.484375 4.15625 -0.328125 C 3.9375 -0.179688 3.6875 -0.0703125 3.40625 0 C 3.132812 0.0703125 2.84375 0.109375 2.53125 0.109375 C 2.257812 0.109375 1.988281 0.0820312 1.71875 0.03125 C 1.457031 -0.0195312 1.238281 -0.0859375 1.0625 -0.171875 C 0.882812 -0.253906 0.722656 -0.335938 0.578125 -0.421875 C 0.441406 -0.503906 0.335938 -0.570312 0.265625 -0.625 L 0.171875 -0.71875 L 0.890625 -1.90625 C 0.953125 -1.863281 1.035156 -1.800781 1.140625 -1.71875 C 1.242188 -1.644531 1.429688 -1.539062 1.703125 -1.40625 C 1.972656 -1.269531 2.210938 -1.203125 2.421875 -1.203125 C 3.023438 -1.203125 3.328125 -1.410156 3.328125 -1.828125 C 3.328125 -1.910156 3.304688 -1.988281 3.265625 -2.0625 C 3.222656 -2.132812 3.144531 -2.207031 3.03125 -2.28125 C 2.925781 -2.351562 2.832031 -2.410156 2.75 -2.453125 C 2.664062 -2.492188 2.523438 -2.554688 2.328125 -2.640625 C 2.140625 -2.734375 2 -2.804688 1.90625 -2.859375 C 1.53125 -3.046875 1.238281 -3.28125 1.03125 -3.5625 C 0.820312 -3.84375 0.71875 -4.144531 0.71875 -4.46875 C 0.71875 -5.03125 0.925781 -5.488281 1.34375 -5.84375 C 1.757812 -6.195312 2.234375 -6.375 2.765625 -6.375 Z M 2.765625 -6.375 "/></g></g></g><g fill="#ffffff" fill-opacity="1"><g transform="translate(58.24252, 28.019468)"><g><path d="M 1.890625 -6.265625 L 1.890625 0 L 0.453125 0 L 0.453125 -6.265625 Z M 1.890625 -6.265625 "/></g></g></g><g fill="#ffffff" fill-opacity="1"><g transform="translate(60.57921, 28.019468)"><g><path d="M 0.171875 -3.140625 C 0.171875 -4.046875 0.476562 -4.8125 1.09375 -5.4375 C 1.71875 -6.0625 2.460938 -6.375 3.328125 -6.375 C 4.203125 -6.375 4.945312 -6.0625 5.5625 -5.4375 C 6.175781 -4.8125 6.484375 -4.046875 6.484375 -3.140625 C 6.484375 -2.222656 6.179688 -1.453125 5.578125 -0.828125 C 4.972656 -0.203125 4.222656 0.109375 3.328125 0.109375 C 2.410156 0.109375 1.65625 -0.195312 1.0625 -0.8125 C 0.46875 -1.4375 0.171875 -2.210938 0.171875 -3.140625 Z M 1.71875 -3.140625 C 1.71875 -2.804688 1.765625 -2.503906 1.859375 -2.234375 C 1.960938 -1.960938 2.140625 -1.734375 2.390625 -1.546875 C 2.648438 -1.359375 2.960938 -1.265625 3.328125 -1.265625 C 3.859375 -1.265625 4.257812 -1.445312 4.53125 -1.8125 C 4.800781 -2.175781 4.9375 -2.617188 4.9375 -3.140625 C 4.9375 -3.648438 4.796875 -4.085938 4.515625 -4.453125 C 4.242188 -4.816406 3.847656 -5 3.328125 -5 C 2.816406 -5 2.421875 -4.816406 2.140625 -4.453125 C 1.859375 -4.085938 1.71875 -3.648438 1.71875 -3.140625 Z M 1.71875 -3.140625 "/></g></g></g><g fill="#ffffff" fill-opacity="1"><g transform="translate(67.232702, 28.019468)"><g><path d="M 1.890625 -3.890625 L 1.890625 0 L 0.453125 0 L 0.453125 -6.265625 L 1.890625 -6.265625 L 4.375 -2.375 L 4.390625 -2.375 L 4.390625 -6.265625 L 5.8125 -6.265625 L 5.8125 0 L 4.390625 0 Z M 1.890625 -3.890625 "/></g></g></g></svg>